<?xml version="1.0" encoding="UTF-8"?>
<svg id="Calque_1" xmlns="http://www.w3.org/2000/svg" version="1.1" viewBox="0 0 595.28 185.89">
  <!-- Generator: Adobe Illustrator 30.4.0, SVG Export Plug-In . SVG Version: 2.1.4 Build 226)  -->
  <defs>
    <style>
      .st0, .st1 {
        font-size: 49px;
      }

      .st0, .st1, .st2, .st3 {
        isolation: isolate;
      }

      .st0, .st1, .st4 {
        fill: #fd0;
      }

      .st1 {
        letter-spacing: .03em;
      }

      .st1, .st5 {
        font-family: BrandonGrotesque-Medium, 'Brandon Grotesque';
        font-weight: 500;
      }

      .st3 {
        font-family: BrandonGrotesque-Thin, 'Brandon Grotesque';
        font-size: 27px;
        font-weight: 200;
        letter-spacing: .15em;
      }

      .st3, .st6 {
        fill: #fff;
      }

      .st7 {
        font-family: BrandonGrotesque-Black, 'Brandon Grotesque';
        font-weight: 800;
      }
    </style>
  </defs>
  <polygon class="st6" points="293.25 17.53 291.28 15.1 287.87 10.89 284.46 15.1 282.49 17.53 293.25 17.53 293.25 17.53"/>
  <polygon class="st6" points="260.62 40.12 258.06 42.19 253.85 45.6 258.06 49.01 260.62 51.08 260.62 40.12 260.62 40.12"/>
  <path class="st4" d="M322.23,71.38V30.4c0-4.13-3.35-7.47-7.47-7.47h-40.98c-4.13,0-7.47,3.35-7.47,7.47v40.98c0,4.13,3.35,7.47,7.47,7.47h40.98c4.13,0,7.47-3.35,7.47-7.47h0ZM307.57,63.76c0,.25-.2.64-.39.78,0,0-5.05,3.23-12.15,3.23-9.75,0-17.64-7.79-17.64-17.59s7.89-17.69,17.64-17.69c4.7,0,8.57,1.71,11.91,4.56.39.39.44.98.05,1.37-.73.78-1.47,1.52-2.2,2.3-.39.44-.78.39-1.27-.05-2.3-2.01-5.34-3.33-8.33-3.33-6.96,0-12.3,5.88-12.3,12.74s5.34,12.69,12.3,12.69c4.07,0,6.86-1.47,7.35-1.67v-5.49h-4.8c-.54,0-.93-.39-.93-.88v-2.84c0-.54.39-.93.93-.93h8.92c.49,0,.88.44.88.93,0,3.92.05,7.94.05,11.86h-.02Z"/>
  <path class="st6" d="M264.02,71.73c-2.01-1-3.4-3.05-3.4-5.44V23.99c0-3.36,2.74-6.1,6.1-6.1h42.3c2.13,0,4.01,1.1,5.1,2.77h.81c-1.17-2.07-3.36-3.48-5.9-3.48h-42.3c-3.76,0-6.81,3.06-6.81,6.81v42.3c0,2.8,1.7,5.2,4.11,6.25v-.81h-.01Z"/>
  <g class="st2">
    <text class="st3" transform="translate(213.02 157.27)"><tspan x="0" y="0">SCRABBLE</tspan></text>
  </g>
  <g class="st2">
    <text class="st1" transform="translate(137 125.47)"><tspan x="0" y="0">LA</tspan></text>
  </g>
  <g class="st2">
    <text class="st0" transform="translate(195.41 125.47)"><tspan class="st7" x="0" y="0" xml:space="preserve">  </tspan><tspan class="st5" x="21.66" y="0">GARENNA</tspan></text>
  </g>
</svg>